<svg height='100px' width='100px'  fill="#000000" xmlns="http://www.w3.org/2000/svg" xmlns:xlink="http://www.w3.org/1999/xlink" version="1.1" x="0px" y="0px" viewBox="0 0 100 100" enable-background="new 0 0 100 100" xml:space="preserve"><g><path fill="none" d="M50.654,7.725c-23.159,0-42,18.841-42,42c0,9.731,3.336,18.693,8.912,25.822l0.639-4.554l0.016-0.182   c0-6.765,5.133-11.865,11.938-11.865h10.971l6.031,14.473l2.465-9.108l-1.619-1.619l-1.474-1.473   c-0.281-0.281-0.422-0.65-0.423-1.018c0-0.099,0.01-0.194,0.029-0.287c0.004-0.016,0.01-0.029,0.014-0.045   c0.018-0.078,0.04-0.154,0.07-0.227c0.003-0.008,0.008-0.015,0.01-0.021c0.07-0.16,0.168-0.311,0.3-0.442h0.004   c0.094-0.093,0.203-0.167,0.319-0.232c0.207-0.115,0.442-0.187,0.697-0.187h1.816h2.569h1.816c0.255,0,0.489,0.071,0.696,0.187   c0.116,0.065,0.227,0.14,0.32,0.232h0.004c0.131,0.132,0.229,0.282,0.299,0.442c0.002,0.007,0.008,0.014,0.011,0.021   c0.03,0.072,0.052,0.148,0.07,0.227c0.003,0.016,0.01,0.029,0.013,0.045c0.02,0.093,0.029,0.188,0.029,0.287   c0,0.367-0.141,0.736-0.422,1.018l-1.475,1.473l-1.618,1.62l2.465,9.108l6.03-14.474h10.96c6.808,0,11.945,5.101,11.945,11.865   v0.094l0.653,4.648c5.58-7.13,8.918-16.095,8.918-25.829C92.654,26.566,73.813,7.725,50.654,7.725z M50.656,51.809   c-9.941,0-18.002-8.062-18.002-18.002c0-9.936,8.061-17.998,18.002-17.998c9.936,0,17.997,8.063,17.997,17.998   C68.653,43.747,60.592,51.809,50.656,51.809z"></path><path d="M50.654,4.725c-24.854,0-45,20.147-45,45c0,11.461,4.291,21.914,11.346,29.859c6.343,7.144,14.918,12.26,24.639,14.236   c2.907,0.591,5.915,0.902,8.996,0.904c0.007,0,0.013,0,0.02,0s0.013,0,0.02,0c3.081-0.002,6.089-0.313,8.995-0.904   c9.719-1.977,18.293-7.09,24.635-14.23c7.058-7.945,11.351-18.402,11.351-29.865C95.654,24.872,75.508,4.725,50.654,4.725z    M83.736,75.554l-0.653-4.648v-0.094c0-6.765-5.138-11.865-11.945-11.865h-10.96l-6.03,14.474l-2.465-9.108l1.618-1.62l1.475-1.473   c0.281-0.281,0.422-0.65,0.422-1.018c0-0.099-0.01-0.194-0.029-0.287c-0.003-0.016-0.01-0.029-0.013-0.045   c-0.019-0.078-0.04-0.154-0.07-0.227c-0.003-0.008-0.009-0.015-0.011-0.021c-0.07-0.16-0.168-0.311-0.299-0.442h-0.004   c-0.094-0.093-0.204-0.167-0.32-0.232c-0.207-0.115-0.441-0.187-0.696-0.187h-1.816h-2.569h-1.816c-0.255,0-0.49,0.071-0.697,0.187   c-0.116,0.065-0.226,0.14-0.319,0.232h-0.004c-0.132,0.132-0.229,0.282-0.3,0.442c-0.002,0.007-0.007,0.014-0.01,0.021   c-0.03,0.072-0.053,0.148-0.07,0.227c-0.004,0.016-0.01,0.029-0.014,0.045c-0.02,0.093-0.029,0.188-0.029,0.287   c0.001,0.367,0.142,0.736,0.423,1.018l1.474,1.473l1.619,1.619l-2.465,9.108l-6.031-14.473H30.158   c-6.805,0-11.938,5.101-11.938,11.865l-0.016,0.182l-0.639,4.554c-5.576-7.129-8.912-16.091-8.912-25.822c0-23.159,18.841-42,42-42   s42,18.841,42,42C92.654,59.459,89.316,68.424,83.736,75.554z"></path><path d="M50.656,15.808c-9.941,0-18.002,8.063-18.002,17.998c0,9.941,8.061,18.002,18.002,18.002   c9.936,0,17.997-8.062,17.997-18.002C68.653,23.871,60.592,15.808,50.656,15.808z"></path></g></svg>