<svg height='100px' width='100px'  fill="#000000" xmlns:x="http://ns.adobe.com/Extensibility/1.0/" xmlns:i="http://ns.adobe.com/AdobeIllustrator/10.0/" xmlns:graph="http://ns.adobe.com/Graphs/1.0/" xmlns="http://www.w3.org/2000/svg" xmlns:xlink="http://www.w3.org/1999/xlink" version="1.1" x="0px" y="0px" viewBox="0 0 100 100" style="enable-background:new 0 0 100 100;" xml:space="preserve"><g><g i:extraneous="self"><g><path d="M5273.1,2400.1v-2c0-2.8-5-4-9.7-4s-9.7,1.3-9.7,4v2c0,1.8,0.7,3.6,2,4.9l5,4.9c0.3,0.3,0.4,0.6,0.4,1v6.4     c0,0.4,0.2,0.7,0.6,0.8l2.9,0.9c0.5,0.1,1-0.2,1-0.8v-7.2c0-0.4,0.2-0.7,0.4-1l5.1-5C5272.4,2403.7,5273.1,2401.9,5273.1,2400.1z      M5263.4,2400c-4.8,0-7.4-1.3-7.5-1.8v0c0.1-0.5,2.7-1.8,7.5-1.8c4.8,0,7.3,1.3,7.5,1.8C5270.7,2398.7,5268.2,2400,5263.4,2400z"></path><path d="M5268.4,2410.3c-0.6,0-1,0.4-1,1c0,0.6,0.4,1,1,1h4.3c0.6,0,1-0.4,1-1c0-0.6-0.4-1-1-1H5268.4z"></path><path d="M5272.7,2413.7h-4.3c-0.6,0-1,0.4-1,1c0,0.6,0.4,1,1,1h4.3c0.6,0,1-0.4,1-1C5273.7,2414.1,5273.3,2413.7,5272.7,2413.7z"></path><path d="M5272.7,2417h-4.3c-0.6,0-1,0.4-1,1c0,0.6,0.4,1,1,1h4.3c0.6,0,1-0.4,1-1C5273.7,2417.5,5273.3,2417,5272.7,2417z"></path></g><path d="M2.5,17v66h95V17H2.5z M34.5,27.7l2.8-0.2l1.1-2.6c0.1-0.2,0.4-0.2,0.4,0l1.1,2.6l2.8,0.2c0.1,0,0.2,0.1,0.2,0.2    c0,0.1,0,0.2-0.1,0.3l-2.1,1.8l0.6,2.7c0,0.1,0,0.2-0.1,0.3c-0.1,0.1-0.2,0.1-0.3,0l-2.4-1.5l-2.4,1.5c0,0-0.1,0-0.1,0    c-0.1,0-0.1,0-0.1,0c-0.1-0.1-0.1-0.2-0.1-0.2l0.7-2.7l-2.1-1.8c-0.1-0.1-0.1-0.2-0.1-0.3C34.3,27.8,34.4,27.7,34.5,27.7z     M34.5,39.3l2.8-0.2l1.1-2.6c0.1-0.2,0.4-0.2,0.4,0l1.1,2.6l2.8,0.2c0.1,0,0.2,0.1,0.2,0.2c0,0.1,0,0.2-0.1,0.3l-2.1,1.8l0.6,2.7    c0,0.1,0,0.2-0.1,0.3c-0.1,0.1-0.2,0.1-0.3,0l-2.4-1.5l-2.4,1.5c0,0-0.1,0-0.1,0c0,0-0.1,0-0.1,0c-0.1-0.1-0.1-0.2-0.1-0.2    l0.7-2.7l-2.1-1.8c-0.1-0.1-0.1-0.2-0.1-0.3C34.3,39.4,34.4,39.4,34.5,39.3z M22.4,27.7l2.8-0.2l1.1-2.6c0.1-0.2,0.4-0.2,0.4,0    l1.1,2.6l2.8,0.2c0.1,0,0.2,0.1,0.2,0.2c0,0.1,0,0.2-0.1,0.3l-2.1,1.8l0.6,2.7c0,0.1,0,0.2-0.1,0.3c-0.1,0.1-0.2,0.1-0.3,0    l-2.4-1.5l-2.4,1.5c0,0-0.1,0-0.1,0c0,0-0.1,0-0.1,0c-0.1-0.1-0.1-0.2-0.1-0.2l0.7-2.7l-2.1-1.8c-0.1-0.1-0.1-0.2-0.1-0.3    C22.2,27.8,22.3,27.7,22.4,27.7z M22.4,39.3l2.8-0.2l1.1-2.6c0.1-0.2,0.4-0.2,0.4,0l1.1,2.6l2.8,0.2c0.1,0,0.2,0.1,0.2,0.2    c0,0.1,0,0.2-0.1,0.3l-2.1,1.8l0.6,2.7c0,0.1,0,0.2-0.1,0.3c-0.1,0.1-0.2,0.1-0.3,0l-2.4-1.5l-2.4,1.5c0,0-0.1,0-0.1,0    c-0.1,0-0.1,0-0.1,0c-0.1-0.1-0.1-0.2-0.1-0.2l0.7-2.7l-2.1-1.8c-0.1-0.1-0.1-0.2-0.1-0.3S22.3,39.4,22.4,39.3z M10.3,27.7    l2.8-0.2l1.1-2.6c0.1-0.2,0.4-0.2,0.4,0l1.1,2.6l2.8,0.2c0.1,0,0.2,0.1,0.2,0.2c0,0.1,0,0.2-0.1,0.3l-2.1,1.8l0.7,2.7    c0,0.1,0,0.2-0.1,0.2c-0.1,0.1-0.2,0.1-0.3,0l-2.4-1.5L12,32.9c0,0-0.1,0-0.1,0c0,0-0.1,0-0.1,0c-0.1-0.1-0.1-0.2-0.1-0.2l0.7-2.7    l-2.1-1.8c-0.1-0.1-0.1-0.2-0.1-0.3C10.1,27.8,10.2,27.7,10.3,27.7z M10.3,39.3l2.8-0.2l1.1-2.6c0.1-0.2,0.4-0.2,0.4,0l1.1,2.6    l2.8,0.2c0.1,0,0.2,0.1,0.2,0.2c0,0.1,0,0.2-0.1,0.3l-2.1,1.8l0.7,2.7c0,0.1,0,0.2-0.1,0.3c-0.1,0.1-0.2,0.1-0.3,0l-2.4-1.5    L12,44.6c0,0-0.1,0-0.1,0c0,0-0.1,0-0.1,0c-0.1-0.1-0.1-0.2-0.1-0.2l0.7-2.7l-2.1-1.8c-0.1-0.1-0.1-0.2-0.1-0.3    C10.1,39.4,10.2,39.4,10.3,39.3z M91.3,76.8H8.7V68h82.6V76.8z M91.3,61.9H8.7v-8.8h82.6V61.9z M91.3,46.9H50.5v-8.8h40.8V46.9z     M91.3,32H50.5v-8.8h40.8V32z"></path></g></g></svg>